# xmcd CD database file
#
# Track frame offsets:
#	150
#	16872
#	33132
#	49351
#	63940
#	76976
#	95688
#	112956
#	123648
#	134187
#	148162
#	163893
#	179905
#	201427
#	210244
#
# Disc length: 2965 seconds
#
# Revision: 0
# Processed by: cddbd v1.5.2PL0 Copyright (c) Steve Scherf et al.
# Submitted via: CDex 1.70beta2
#
DISCID=e30b930f
DTITLE=Bob Log III - Surprise! (Live!)
DYEAR=2008
DGENRE=Blues
TTITLE0=Bump Pow! Bump Bump Bump Pow! Pump Pow! Bump Bump Bump Baby! Bump Pow! Bump Bump Bump Pow! Pump Pow! Bump Bump Bump
TTITLE1=Make You Say Wow! (Live)
TTITLE2=6 Stringer Kicker (Live)
TTITLE3=Mr. Sis Boom Bah (Live)
TTITLE4=The Rattler (Live)
TTITLE5=Manipulate Your Figments (Live)
TTITLE6=Wigglin Room (Live)
TTITLE7=Bullet Train Hand (Live)
TTITLE8=Bang Your Thang At The Ball (Live)
TTITLE9=Booby Trap (Live)
TTITLE10=Boob Scotch (Live)
TTITLE11=Look At That Log Finger Go (Live)
TTITLE12=String Around A Stick (Live)
TTITLE13=Surprise! (Live)
TTITLE14=Manipulate You Figments (Loud)
EXTD=YEAR: 2008
EXTT0=
EXTT1=
EXTT2=
EXTT3=
EXTT4=
EXTT5=
EXTT6=
EXTT7=
EXTT8=
EXTT9=
EXTT10=
EXTT11=
EXTT12=
EXTT13=
EXTT14=
PLAYORDER=
